<svg width="162" height="287" viewBox="0 0 162 287" fill="none" xmlns="http://www.w3.org/2000/svg">
<path d="M152.361 41.7782C154.74 52.7561 149.468 64.9214 137.705 75.5979C125.942 86.2745 108.651 94.5876 89.6366 98.7086C70.6219 102.83 51.4408 102.421 36.3131 97.5722C21.1853 92.7236 11.35 83.8324 8.97078 72.8545L19.3163 70.6123C21.3522 80.0061 29.7683 87.6144 42.7131 91.7633C55.658 95.9122 72.0712 96.262 88.3421 92.7357C104.613 89.2094 119.409 82.0958 129.474 72.9599C139.54 63.824 144.051 53.4141 142.015 44.0203L152.361 41.7782Z" fill="#943434" fill-opacity="0.75"/>
<rect x="9" y="66" width="18" height="221" rx="5" fill="#262626"/>
<circle cx="17.5" cy="53.5" r="13.5" fill="#262626"/>
<rect x="9" y="79" width="18" height="10" fill="#943434"/>
<rect x="140.052" y="38.8831" width="14.5887" height="179.117" rx="5" fill="#262626"/>
<circle cx="146.942" cy="28.9415" r="10.9415" fill="#262626"/>
<rect x="140.052" y="49.4194" width="14.5887" height="8.10484" fill="#943434"/>
</svg>
